<svg width="24" height="24" viewBox="0 0 24 24" fill="none" xmlns="http://www.w3.org/2000/svg">
<g clip-path="url(#clip0_1546_3514)">
<path d="M22.125 1.80884H18V-0.816162H16.5V1.80884H7.5V-0.816162H6V1.80884H1.875C1.57674 1.80919 1.29079 1.92782 1.07989 2.13873C0.868985 2.34963 0.750347 2.63558 0.75 2.93384V21.375C0.750347 21.6733 0.868985 21.9593 1.07989 22.1702C1.29079 22.3811 1.57674 22.4997 1.875 22.5H22.125C22.4233 22.4997 22.7092 22.3811 22.9201 22.1702C23.131 21.9593 23.2497 21.6733 23.25 21.375V2.93384C23.2497 2.63558 23.131 2.34963 22.9201 2.13873C22.7092 1.92782 22.4233 1.80919 22.125 1.80884ZM21.75 21H2.25V3.30884H6V5.18384H7.5V3.30884H16.5V5.18384H18V3.30884H21.75V21Z" fill="black"/>
<path d="M5.25 10.5H6.75V12H5.25V10.5Z" fill="black"/>
<path d="M9.375 10.5H10.875V12H9.375V10.5Z" fill="black"/>
<path d="M13.125 10.5H14.625V12H13.125V10.5Z" fill="black"/>
<path d="M17.25 10.5H18.75V12H17.25V10.5Z" fill="black"/>
<path d="M5.25 13.875H6.75V15.375H5.25V13.875Z" fill="black"/>
<path d="M9.375 13.875H10.875V15.375H9.375V13.875Z" fill="black"/>
<path d="M13.125 13.875H14.625V15.375H13.125V13.875Z" fill="black"/>
<path d="M17.25 13.875H18.75V15.375H17.25V13.875Z" fill="black"/>
<path d="M5.25 17.25H6.75V18.75H5.25V17.25Z" fill="black"/>
<path d="M9.375 17.25H10.875V18.75H9.375V17.25Z" fill="black"/>
<path d="M13.125 17.25H14.625V18.75H13.125V17.25Z" fill="black"/>
<path d="M17.25 17.25H18.75V18.75H17.25V17.25Z" fill="black"/>
</g>
<defs>
<clipPath id="clip0_1546_3514">
<rect width="24" height="24" fill="white"/>
</clipPath>
</defs>
</svg>
