<svg width="14" height="15" viewBox="0 0 14 15" fill="none" xmlns="http://www.w3.org/2000/svg">
<path fill-rule="evenodd" clip-rule="evenodd" d="M13.4101 1.79867C14 2.68145 14 3.91036 14 6.36816C14 8.82597 14 10.0549 13.4101 10.9377C13.1548 11.3198 12.8267 11.648 12.4445 11.9033C11.6733 12.4186 10.638 12.4837 8.75 12.492V12.4932L7.89443 14.2043C7.5259 14.9414 6.4741 14.9414 6.10557 14.2043L5.25 12.4932V12.492C3.36201 12.4837 2.32669 12.4186 1.5555 11.9033C1.17334 11.648 0.845211 11.3198 0.589856 10.9377C0 10.0549 0 8.82597 0 6.36816C0 3.91036 0 2.68145 0.589856 1.79867C0.845211 1.4165 1.17334 1.08838 1.5555 0.83302C2.43829 0.243164 3.66719 0.243164 6.125 0.243164H7.875C10.3328 0.243164 11.5617 0.243164 12.4445 0.83302C12.8267 1.08838 13.1548 1.4165 13.4101 1.79867Z" fill="#E98911"/>
</svg>
