<svg width="33" height="32" viewBox="0 0 33 32" fill="none" xmlns="http://www.w3.org/2000/svg">
<path d="M20.8337 10.6668C20.8337 13.0601 18.8936 15.0002 16.5003 15.0002C14.1071 15.0002 12.167 13.0601 12.167 10.6668C12.167 8.2736 14.1071 6.3335 16.5003 6.3335C18.8936 6.3335 20.8337 8.2736 20.8337 10.6668Z" stroke="black" stroke-width="2" stroke-linecap="round"/>
<path d="M20.5689 10.5C20.9667 9.81095 21.622 9.30815 22.3905 9.10222C23.1591 8.89629 23.9779 9.0041 24.667 9.40192C25.356 9.79975 25.8588 10.455 26.0648 11.2235C26.2707 11.9921 26.1629 12.8109 25.7651 13.5C25.3672 14.1891 24.712 14.6918 23.9434 14.8978C23.1749 15.1037 22.356 14.9959 21.667 14.5981C20.9779 14.2003 20.4751 13.545 20.2692 12.7765C20.0633 12.0079 20.1711 11.1891 20.5689 10.5L20.5689 10.5Z" stroke="black" stroke-width="2"/>
<path d="M7.23493 10.5C7.63276 9.81095 8.28801 9.30815 9.05655 9.10222C9.82509 8.89629 10.644 9.0041 11.333 9.40192C12.0221 9.79975 12.5249 10.455 12.7308 11.2235C12.9367 11.9921 12.8289 12.8109 12.4311 13.5C12.0333 14.1891 11.378 14.6918 10.6095 14.8978C9.84093 15.1037 9.02206 14.9959 8.33301 14.5981C7.64396 14.2003 7.14116 13.545 6.93523 12.7765C6.7293 12.0079 6.83711 11.1891 7.23493 10.5L7.23493 10.5Z" stroke="black" stroke-width="2"/>
<path d="M23.0091 23.9998L22.0288 24.1973L22.1904 24.9998H23.0091V23.9998ZM28.246 22.8988L27.2897 23.1912L27.2897 23.1912L28.246 22.8988ZM20.208 19.6139L19.6032 18.8175L18.4466 19.696L19.6799 20.463L20.208 19.6139ZM27.3675 22.9998H23.0091V24.9998H27.3675V22.9998ZM27.2897 23.1912C27.2851 23.176 27.2809 23.146 27.2885 23.1095C27.2957 23.075 27.3104 23.0488 27.3244 23.0317C27.3516 22.9984 27.3743 22.9998 27.3675 22.9998V24.9998C28.5296 24.9998 29.6061 23.9271 29.2023 22.6064L27.2897 23.1912ZM23.1669 19.6665C25.7593 19.6665 26.8387 21.7161 27.2897 23.1912L29.2023 22.6064C28.6984 20.9583 27.1792 17.6665 23.1669 17.6665V19.6665ZM20.8129 20.4102C21.3825 19.9775 22.1356 19.6665 23.1669 19.6665V17.6665C21.6917 17.6665 20.5152 18.1248 19.6032 18.8175L20.8129 20.4102ZM19.6799 20.463C21.1803 21.3962 21.7892 23.0077 22.0288 24.1973L23.9894 23.8024C23.7061 22.3957 22.9259 20.1266 20.7361 18.7647L19.6799 20.463Z" fill="black"/>
<path d="M12.7921 19.6139L13.3203 20.463L14.5536 19.696L13.397 18.8175L12.7921 19.6139ZM4.75415 22.8988L3.79785 22.6064L3.79785 22.6064L4.75415 22.8988ZM9.99104 23.9998V24.9998H10.8097L10.9714 24.1973L9.99104 23.9998ZM9.83325 19.6665C10.8646 19.6665 11.6176 19.9775 12.1873 20.4102L13.397 18.8175C12.485 18.1248 11.3085 17.6665 9.83325 17.6665V19.6665ZM5.71044 23.1912C6.16145 21.7161 7.24088 19.6665 9.83325 19.6665V17.6665C5.82096 17.6665 4.30177 20.9583 3.79785 22.6064L5.71044 23.1912ZM5.63268 22.9998C5.62589 22.9998 5.64854 22.9984 5.67577 23.0317C5.68976 23.0488 5.70443 23.075 5.71161 23.1095C5.71921 23.146 5.71509 23.176 5.71044 23.1912L3.79785 22.6064C3.39405 23.9271 4.47053 24.9998 5.63268 24.9998V22.9998ZM9.99104 22.9998H5.63268V24.9998H9.99104V22.9998ZM10.9714 24.1973C11.2109 23.0077 11.8198 21.3962 13.3203 20.463L12.264 18.7647C10.0743 20.1266 9.29404 22.3956 9.01072 23.8024L10.9714 24.1973Z" fill="black"/>
<path d="M16.4997 18.6665C21.5435 18.6665 22.7713 22.4826 23.0702 24.3404C23.1579 24.8857 22.7186 25.3332 22.1663 25.3332H10.833C10.2807 25.3332 9.84145 24.8857 9.92917 24.3404C10.228 22.4826 11.4558 18.6665 16.4997 18.6665Z" stroke="black" stroke-width="2" stroke-linecap="round"/>
</svg>
