<svg width="16" height="17" viewBox="0 0 16 17" fill="none" xmlns="http://www.w3.org/2000/svg">
<path d="M12.8618 2.10205C13.3473 2.30307 13.7885 2.59781 14.1602 2.96942L14.3761 3.18533C15.1251 3.93607 15.5458 4.95326 15.5458 6.01375C15.5458 7.07424 15.1251 8.09143 14.3761 8.84217L8.6376 14.5807L8.0346 15.217L8.01794 15.2003L8.0026 15.2157L7.359 14.5414L1.65985 8.84226C0.909707 8.09212 0.488281 7.07471 0.488281 6.01384C0.488281 4.95298 0.909707 3.93557 1.65985 3.18542L1.87579 2.96948C2.24722 2.59805 2.68818 2.3034 3.17348 2.10238C3.65879 1.90136 4.17893 1.7979 4.70422 1.7979C5.22951 1.7979 5.74966 1.90136 6.23496 2.10238C6.72027 2.3034 7.16123 2.59805 7.53266 2.96948L7.53579 2.97261L8.01647 3.46217L8.50119 2.97155C8.87253 2.59965 9.31351 2.30458 9.79893 2.1032C10.2843 1.90181 10.8047 1.79805 11.3302 1.79785C11.8558 1.79765 12.3762 1.90102 12.8618 2.10205Z" fill="#FF8527"/>
</svg>
