<svg width="16" height="16" viewBox="0 0 16 16" fill="none" xmlns="http://www.w3.org/2000/svg">
<path d="M12.8618 1.60156C13.3473 1.80258 13.7885 2.09732 14.1602 2.46893L14.3761 2.68484C15.1251 3.43558 15.5458 4.45277 15.5458 5.51326C15.5458 6.57375 15.1251 7.59094 14.3761 8.34168L8.6376 14.0802L8.0346 14.7165L8.01794 14.6998L8.0026 14.7152L7.359 14.0409L1.65985 8.34178C0.909707 7.59163 0.488281 6.57422 0.488281 5.51335C0.488281 4.45249 0.909707 3.43508 1.65985 2.68493L1.87579 2.46899C2.24722 2.09756 2.68818 1.80292 3.17348 1.6019C3.65879 1.40088 4.17893 1.29741 4.70422 1.29741C5.22951 1.29741 5.74966 1.40088 6.23496 1.6019C6.72027 1.80292 7.16123 2.09756 7.53266 2.46899L7.53579 2.47212L8.01647 2.96168L8.50119 2.47106C8.87253 2.09917 9.31351 1.8041 9.79893 1.60271C10.2843 1.40132 10.8047 1.29756 11.3302 1.29736C11.8558 1.29717 12.3762 1.40053 12.8618 1.60156Z" fill="#FF8527"/>
</svg>
