<svg width="24" height="24" viewBox="0 0 24 24" fill="none" xmlns="http://www.w3.org/2000/svg">
<path d="M21.2402 3.70364C20.6828 3.14622 20.021 2.70411 19.2927 2.40258C18.5643 2.10104 17.7837 1.94599 16.9954 1.94629C16.207 1.94659 15.4265 2.10222 14.6984 2.4043C13.9703 2.70639 13.3088 3.14899 12.7518 3.70683L12.0247 4.44277L11.3037 3.70842L11.299 3.70374C10.7418 3.14658 10.0804 2.70462 9.35245 2.40309C8.62449 2.10156 7.84427 1.94636 7.05634 1.94636C6.2684 1.94636 5.48818 2.10156 4.76023 2.40309C4.03227 2.70462 3.37083 3.14658 2.81368 3.70374L2.48977 4.02764C1.36456 5.15286 0.732422 6.67898 0.732422 8.27028C0.732422 9.86157 1.36456 11.3877 2.48977 12.5129L11.0385 21.0615L12.0039 22.073L12.0269 22.05L12.0519 22.0749L12.9564 21.1206L21.5641 12.5128C22.6877 11.3867 23.3187 9.86087 23.3187 8.27013C23.3187 6.6794 22.6877 5.15361 21.5641 4.0275L21.2402 3.70364ZM20.5033 11.4521L12.0269 19.9287L3.55037 11.4521C2.70646 10.6082 2.23236 9.46363 2.23236 8.27016C2.23236 7.07669 2.70646 5.9321 3.55037 5.08819L3.87432 4.76428C4.71782 3.92079 5.86172 3.44672 7.0546 3.44627C8.24748 3.44583 9.39173 3.91903 10.2359 4.76189L12.0215 6.58003L13.8156 4.76428C14.2334 4.34642 14.7295 4.01494 15.2755 3.7888C15.8214 3.56265 16.4066 3.44625 16.9976 3.44625C17.5885 3.44625 18.1737 3.56265 18.7196 3.7888C19.2656 4.01494 19.7617 4.34642 20.1796 4.76428L20.5035 5.08814C21.3461 5.93275 21.8193 7.07711 21.8193 8.27017C21.8192 9.46323 21.346 10.6076 20.5033 11.4521Z" fill="#FF8527"/>
</svg>
