<svg width="22" height="23" viewBox="0 0 22 23" fill="none" xmlns="http://www.w3.org/2000/svg">
<path d="M21.0156 9.14611L11.7068 0.582004C11.4042 0.303591 11.0056 0.152918 10.5945 0.161479C10.1834 0.17004 9.79151 0.337172 9.50075 0.627941L0.939359 9.18938L0.5 9.62869V22.25H8.75V14.375H13.25V22.25H21.5V9.5918L21.0156 9.14611ZM10.6268 1.66116C10.64 1.66116 10.6318 1.66402 10.6262 1.6696C10.6203 1.66402 10.6136 1.66116 10.6268 1.66116ZM20 20.75H14.75V14.375C14.75 13.9772 14.592 13.5957 14.3107 13.3144C14.0294 13.0331 13.6478 12.875 13.25 12.875H8.75C8.35218 12.875 7.97064 13.0331 7.68934 13.3144C7.40804 13.5957 7.25 13.9772 7.25 14.375V20.75H2V10.25L10.6268 1.68858C10.6274 1.68802 10.6274 1.6875 10.6279 1.68694L20 10.25V20.75Z" fill="black"/>
</svg>
