<svg width="20" height="20" viewBox="0 0 20 20" fill="none" xmlns="http://www.w3.org/2000/svg">
<path d="M6.87784 16.2793C6.12128 16.7357 5.1879 16.0585 5.38703 15.1976L6.07298 12.2322C6.15645 11.8714 6.03363 11.4939 5.75377 11.2513L3.45197 9.2557C2.78444 8.67697 3.14039 7.58027 4.02055 7.50387L7.06687 7.23943C7.43605 7.20738 7.75724 6.97381 7.9015 6.63248L9.07921 3.84592C9.42336 3.03165 10.5773 3.03165 10.9214 3.84592L12.0992 6.63248C12.2434 6.97381 12.5646 7.20738 12.9338 7.23943L15.9801 7.50387C16.8603 7.58027 17.2162 8.67697 16.5487 9.2557L14.2469 11.2513C13.967 11.4939 13.8442 11.8714 13.9277 12.2322L14.6136 15.1976C14.8127 16.0585 13.8794 16.7357 13.1228 16.2793L10.5169 14.7073C10.1992 14.5156 9.80148 14.5156 9.48379 14.7073L6.87784 16.2793Z" fill="#FF8527"/>
</svg>
