<svg width="18" height="17" viewBox="0 0 18 17" fill="none" xmlns="http://www.w3.org/2000/svg">
<path d="M8.59638 1.05201C8.79613 0.778828 9.20387 0.778829 9.40362 1.05201L12.1849 4.85589C12.2467 4.94029 12.3333 5.00322 12.4326 5.03583L16.9098 6.50557C17.2313 6.61111 17.3573 6.99891 17.1592 7.27329L14.401 11.0939C14.3398 11.1787 14.3067 11.2805 14.3064 11.3851L14.2921 16.0973C14.2911 16.4357 13.9612 16.6754 13.6391 16.5718L9.15307 15.1292C9.05353 15.0972 8.94647 15.0972 8.84693 15.1292L4.36093 16.5718C4.03876 16.6754 3.70889 16.4357 3.70786 16.0973L3.69359 11.3851C3.69327 11.2805 3.66019 11.1787 3.59899 11.0939L0.840757 7.27329C0.642673 6.99891 0.768674 6.61111 1.09021 6.50556L5.56739 5.03583C5.66673 5.00322 5.75335 4.94029 5.81506 4.85589L8.59638 1.05201Z" fill="#E98911"/>
</svg>
