<svg width="26" height="26" viewBox="0 0 26 26" fill="none" xmlns="http://www.w3.org/2000/svg">
<path d="M11.0681 4.37059C11.1821 4.26427 11.4332 4.17033 11.7825 4.10332C12.1318 4.03632 12.5597 4 13 4C13.4403 4 13.8682 4.03632 14.2175 4.10332C14.5668 4.17033 14.8179 4.26427 14.9319 4.37059" stroke="#33363F" stroke-width="2" stroke-linecap="round"/>
<path d="M4 9H22V9C21.0681 9 20.6022 9 20.2346 9.15224C19.7446 9.35523 19.3552 9.74458 19.1522 10.2346C19 10.6022 19 11.0681 19 12V18C19 19.8856 19 20.8284 18.4142 21.4142C17.8284 22 16.8856 22 15 22H11C9.11438 22 8.17157 22 7.58579 21.4142C7 20.8284 7 19.8856 7 18V12C7 11.0681 7 10.6022 6.84776 10.2346C6.64477 9.74458 6.25542 9.35523 5.76537 9.15224C5.39782 9 4.93188 9 4 9V9Z" stroke="#33363F" stroke-width="2" stroke-linecap="round"/>
<path d="M10.833 16.25L10.833 13" stroke="#33363F" stroke-width="2" stroke-linecap="round"/>
<path d="M15.167 16.25L15.167 13" stroke="#33363F" stroke-width="2" stroke-linecap="round"/>
</svg>
